<?xml version="1.0" standalone="no"?><!-- Generator: Gravit.io --><svg xmlns="http://www.w3.org/2000/svg" xmlns:xlink="http://www.w3.org/1999/xlink" style="isolation:isolate" viewBox="1825.365 30.386 32.787 33.81" width="32.787" height="33.81"><path d=" M 1833.157 33.846 C 1828.146 36.943 1824.973 42.645 1825.404 48.925 C 1826.023 57.951 1833.854 64.777 1842.88 64.157 L 1842.88 64.157 C 1851.907 63.538 1858.732 55.707 1858.113 46.681 C 1857.772 41.704 1855.237 37.396 1851.519 34.636 L 1851.954 40.976 L 1851.901 40.979 C 1852.974 42.654 1853.654 44.613 1853.8 46.736 C 1854.262 53.475 1849.166 59.322 1842.427 59.784 L 1842.427 59.784 C 1835.687 60.247 1829.841 55.151 1829.378 48.411 C 1829.108 44.478 1830.732 40.849 1833.47 38.417 L 1833.157 33.846 Z " fill-rule="evenodd" fill="rgb(255,255,255)"/><path d=" M 1850.36 33.846 C 1855.371 36.943 1858.544 42.645 1858.113 48.925 C 1857.494 57.951 1849.663 64.777 1840.636 64.157 L 1840.636 64.157 C 1831.61 63.538 1824.784 55.707 1825.404 46.681 C 1825.745 41.704 1828.279 37.396 1831.997 34.636 L 1831.562 40.976 L 1831.616 40.979 C 1830.542 42.654 1829.863 44.613 1829.717 46.736 C 1829.255 53.475 1834.351 59.322 1841.09 59.784 L 1841.09 59.784 C 1847.829 60.247 1853.676 55.151 1854.138 48.411 C 1854.408 44.478 1852.785 40.849 1850.046 38.417 L 1850.36 33.846 Z " fill-rule="evenodd" fill="rgb(255,255,255)"/><rect x="1839.696" y="30.386" width="4.125" height="15.838" transform="matrix(1,0,0,1,0,0)" fill="rgb(255,255,255)"/></svg>