<?xml version="1.0" standalone="no"?><!-- Generator: Gravit.io --><svg xmlns="http://www.w3.org/2000/svg" xmlns:xlink="http://www.w3.org/1999/xlink" style="isolation:isolate" viewBox="64.502 59.625 244.489 71.875" width="244.489" height="71.875"><path d=" M 308.99 94.336 L 308.99 97.693 L 308.99 97.693 Q 308.99 105.504 306.362 111.326 L 306.362 111.326 L 306.362 111.326 Q 303.735 117.147 298.917 120.213 L 298.917 120.213 L 298.917 120.213 Q 294.099 123.279 287.675 123.279 L 287.675 123.279 L 287.675 123.279 Q 281.397 123.279 276.543 120.195 L 276.543 120.195 L 276.543 120.195 Q 271.688 117.111 269.006 111.399 L 269.006 111.399 L 269.006 111.399 Q 266.323 105.687 266.25 98.168 L 266.25 98.168 L 266.25 94.336 L 266.25 94.336 Q 266.25 86.671 268.914 80.794 L 268.914 80.794 L 268.914 80.794 Q 271.579 74.918 276.452 71.797 L 276.452 71.797 L 276.452 71.797 Q 281.324 68.677 287.602 68.677 L 287.602 68.677 L 287.602 68.677 Q 293.989 68.677 298.862 71.761 L 298.862 71.761 L 298.862 71.761 Q 303.735 74.845 306.362 80.703 L 306.362 80.703 L 306.362 80.703 Q 308.99 86.561 308.99 94.336 L 308.99 94.336 Z  M 302.019 98.204 L 302.019 94.263 L 302.019 94.263 Q 302.019 84.809 298.223 79.754 L 298.223 79.754 L 298.223 79.754 Q 294.427 74.699 287.602 74.699 L 287.602 74.699 L 287.602 74.699 Q 280.959 74.699 277.145 79.754 L 277.145 79.754 L 277.145 79.754 Q 273.331 84.809 273.221 93.788 L 273.221 93.788 L 273.221 97.693 L 273.221 97.693 Q 273.221 106.855 277.072 112.092 L 277.072 112.092 L 277.072 112.092 Q 280.923 117.33 287.675 117.33 L 287.675 117.33 L 287.675 117.33 Q 294.464 117.33 298.187 112.384 L 298.187 112.384 L 298.187 112.384 Q 301.91 107.439 302.019 98.204 L 302.019 98.204 Z  M 84.029 101.745 L 71.509 101.745 L 71.509 122.549 L 64.502 122.549 L 64.502 69.407 L 84.102 69.407 L 84.102 69.407 Q 92.825 69.407 97.771 73.86 L 97.771 73.86 L 97.771 73.86 Q 102.716 78.313 102.716 85.649 L 102.716 85.649 L 102.716 85.649 Q 102.716 93.387 97.88 97.566 L 97.88 97.566 L 97.88 97.566 Q 93.044 101.745 84.029 101.745 L 84.029 101.745 Z  M 71.509 75.174 L 71.509 96.015 L 84.102 96.015 L 84.102 96.015 Q 89.722 96.015 92.715 93.368 L 92.715 93.368 L 92.715 93.368 Q 95.708 90.722 95.708 85.722 L 95.708 85.722 L 95.708 85.722 Q 95.708 80.977 92.715 78.13 L 92.715 78.13 L 92.715 78.13 Q 89.722 75.283 84.503 75.174 L 84.503 75.174 L 71.509 75.174 Z  M 119.177 69.407 L 119.177 122.549 L 112.169 122.549 L 112.169 69.407 L 119.177 69.407 Z  M 151.515 101.745 L 138.996 101.745 L 138.996 122.549 L 131.988 122.549 L 131.988 69.407 L 151.588 69.407 L 151.588 69.407 Q 160.312 69.407 165.257 73.86 L 165.257 73.86 L 165.257 73.86 Q 170.203 78.313 170.203 85.649 L 170.203 85.649 L 170.203 85.649 Q 170.203 93.387 165.367 97.566 L 165.367 97.566 L 165.367 97.566 Q 160.531 101.745 151.515 101.745 L 151.515 101.745 Z  M 138.996 75.174 L 138.996 96.015 L 151.588 96.015 L 151.588 96.015 Q 157.209 96.015 160.202 93.368 L 160.202 93.368 L 160.202 93.368 Q 163.195 90.722 163.195 85.722 L 163.195 85.722 L 163.195 85.722 Q 163.195 80.977 160.202 78.13 L 160.202 78.13 L 160.202 78.13 Q 157.209 75.283 151.99 75.174 L 151.99 75.174 L 138.996 75.174 Z " fill-rule="evenodd" fill="rgb(255,255,255)"/><path d=" M 253.607 99.33 C 253.767 98.097 253.833 96.838 253.833 95.562 C 253.833 75.728 237.73 59.625 217.896 59.625 C 198.061 59.625 181.958 75.728 181.958 95.562 C 181.958 115.397 198.061 131.5 217.896 131.5 C 219.069 131.5 220.23 131.444 221.366 131.304 C 206.73 129.748 195.333 117.547 195.333 102.75 C 195.333 86.882 208.44 74 224.583 74 C 239.547 74 251.902 85.069 253.607 99.33 Z " fill-rule="evenodd" fill="rgb(255,255,255)"/><path d=" M 214.536 89.227 C 222.773 82.828 234.446 84.051 240.586 91.955 C 246.726 99.859 245.022 111.472 236.785 117.87 C 228.547 124.269 216.875 123.046 210.735 115.142 C 204.595 107.237 206.298 95.625 214.536 89.227 Z  M 211.542 95.666 C 216.178 87.637 226.573 84.949 234.743 89.665 C 242.912 94.382 245.782 104.729 241.147 112.758 C 236.511 120.786 226.116 123.474 217.946 118.758 C 209.777 114.041 206.907 103.694 211.542 95.666 Z " fill-rule="evenodd" fill="rgb(255,255,255)"/><path d=" M 222.01 103.943 C 222.01 101.905 223.665 100.25 225.703 100.25 C 227.741 100.25 229.396 101.905 229.396 103.943 C 229.396 105.981 227.741 107.635 225.703 107.635 C 223.665 107.635 222.01 105.981 222.01 103.943 Z " fill="rgb(255,255,255)"/><path d=" M 217.542 98.844 C 217.542 98.016 218.214 97.344 219.042 97.344 C 219.87 97.344 220.542 98.016 220.542 98.844 C 220.542 99.672 219.87 100.344 219.042 100.344 C 218.214 100.344 217.542 99.672 217.542 98.844 Z " fill="rgb(255,255,255)"/><path d="M 211.952 103.509 L 213.345 104.475 C 213.432 104.536 213.454 104.656 213.393 104.744 L 212.881 105.482 C 212.82 105.57 212.7 105.591 212.613 105.531 L 211.219 104.564 C 211.132 104.503 211.11 104.383 211.171 104.296 L 211.684 103.557 C 211.744 103.47 211.864 103.448 211.952 103.509 Z" style="stroke:none;fill:#FFFFFF;stroke-miterlimit:10;"/><path d=" M 221.02 90.883 C 215.842 92.438 212.061 97.099 211.727 102.613 L 213.036 103.496 C 213.741 98.154 217.478 93.702 222.526 92.029 L 221.02 90.883 Z " fill="rgb(255,255,255)"/><path d=" M 240.597 106.042 C 240.599 108.138 240.093 110.266 239.027 112.239 C 237.445 115.166 234.906 117.249 232.004 118.293 L 231.762 118.095 C 232.356 117.836 232.938 117.532 233.506 117.182 C 237.664 114.622 240.031 110.258 240.195 105.749 L 240.597 106.042 Z " fill="rgb(255,255,255)"/></svg>